<?xml version="1.0" standalone="no"?>
<!DOCTYPE svg PUBLIC "-//W3C//DTD SVG 20010904//EN"
 "http://www.w3.org/TR/2001/REC-SVG-20010904/DTD/svg10.dtd">
<svg version="1.0" xmlns="http://www.w3.org/2000/svg"
 width="454.000000pt" height="496.000000pt" viewBox="0 0 454.000000 496.000000"
 preserveAspectRatio="xMidYMid meet">

<g transform="translate(0.000000,496.000000) scale(0.100000,-0.100000)"
fill="#000000" stroke="none">
<path d="M0 2480 l0 -2480 2270 0 2270 0 0 2480 0 2480 -2270 0 -2270 0 0
-2480z m1505 1977 l69 -24 18 -69 c16 -60 17 -78 7 -144 -7 -41 -16 -85 -20
-97 -12 -33 -69 -86 -115 -107 l-41 -18 -39 25 c-79 52 -101 79 -118 147 -9
35 -18 66 -20 67 -4 4 40 182 46 188 6 6 123 53 134 54 5 1 41 -9 79 -22z
m1936 8 c24 -9 59 -29 77 -46 l33 -30 -7 -87 c-5 -70 -13 -98 -38 -145 l-31
-57 -104 2 -104 3 -44 70 c-43 69 -44 71 -38 135 6 62 9 67 56 112 62 59 119
71 200 43z m-126 -810 c0 -223 -1 -405 -2 -405 -1 0 -40 47 -88 105 l-86 105
-27 116 c-24 105 -30 121 -64 156 -21 22 -36 43 -33 47 2 5 32 18 67 31 38 14
73 35 89 54 74 83 78 91 85 143 6 49 8 53 33 53 l26 0 0 -405z m168 354 c10
-80 69 -149 165 -195 l75 -36 -37 -37 c-33 -34 -41 -52 -67 -160 -31 -131 -26
-123 -158 -280 l-53 -64 7 109 c9 149 10 575 1 652 l-8 62 35 0 c34 0 34 -1
40 -51z m-1909 -64 c36 -81 83 -124 166 -152 71 -24 68 -20 85 -130 l6 -43
-73 38 c-40 20 -76 41 -79 45 -5 7 -123 21 -221 27 -5 0 -8 25 -8 56 0 45 8
71 42 140 23 46 45 84 48 84 3 0 18 -29 34 -65z m-228 33 c4 -13 20 -51 35
-86 19 -41 29 -79 29 -111 l0 -49 -97 -7 c-112 -7 -126 -12 -213 -65 -35 -22
-65 -38 -66 -37 -1 1 3 33 10 71 l11 68 62 23 c71 25 134 83 180 164 15 28 31
51 35 51 4 0 10 -10 14 -22z m545 -213 c24 -9 59 -30 76 -47 32 -31 33 -35 33
-109 0 -85 -8 -139 -21 -139 -4 0 -35 22 -68 50 l-60 50 6 52 c3 29 1 77 -5
106 -5 28 -8 52 -7 52 1 0 22 -7 46 -15z m-871 -8 c0 -2 -7 -25 -16 -51 -14
-40 -14 -54 -4 -92 7 -24 11 -46 9 -47 -2 -1 -29 -24 -61 -50 -31 -26 -58 -47
-61 -47 -13 0 -27 71 -27 139 0 73 1 76 37 113 32 32 43 38 80 38 24 0 43 -1
43 -3z m1940 -9 c-1 -7 -9 -45 -18 -85 -12 -51 -26 -81 -47 -103 -32 -34 -133
-106 -139 -99 -2 2 -6 40 -10 84 l-7 80 51 50 c60 59 171 107 170 73z m910
-16 c32 -11 56 -29 83 -64 l38 -49 -7 -80 c-3 -43 -9 -79 -12 -79 -3 0 -28 14
-56 32 -90 57 -120 104 -132 207 l-7 63 24 -7 c13 -4 44 -14 69 -23z m-795
-170 l29 -123 103 -120 c96 -112 103 -122 103 -163 l0 -43 -113 -36 c-63 -21
-120 -37 -128 -37 -9 0 -22 30 -38 88 -12 48 -36 132 -52 187 -45 154 -41 232
17 404 4 11 10 9 28 -10 17 -17 31 -58 51 -147z m685 66 c33 -133 29 -200 -24
-378 -24 -80 -47 -160 -51 -177 -8 -42 -15 -42 -154 3 l-111 36 0 45 c0 42 5
50 91 146 51 56 97 111 104 122 7 11 25 72 40 135 24 104 51 160 75 160 3 0
17 -42 30 -92z m-2013 -5 c62 -41 82 -60 78 -72 -4 -9 -16 -44 -28 -77 l-21
-61 -91 -23 -91 -23 -62 23 c-35 13 -65 27 -68 32 -4 6 -3 66 1 134 l7 124 95
0 96 0 84 -57z m-357 -1 c0 -27 3 -83 6 -124 l7 -75 -73 -29 -73 -28 -86 23
c-47 12 -88 24 -90 26 -5 6 -30 127 -31 152 0 16 17 31 73 62 70 39 75 40 170
41 l97 0 0 -48z m-372 -138 c10 -35 8 -43 -53 -163 -44 -88 -77 -139 -108
-170 l-46 -44 -6 35 c-5 25 2 66 25 144 31 108 32 109 98 171 37 34 70 63 73
63 3 0 11 -16 17 -36z m868 14 c104 -89 102 -86 144 -221 33 -109 37 -133 27
-154 l-11 -25 -53 58 c-29 33 -78 106 -109 164 -49 92 -55 110 -49 144 6 39
12 56 21 56 2 0 16 -10 30 -22z m1034 -31 c0 -46 -6 -63 -39 -114 -59 -92 -61
-96 -112 -273 -26 -91 -50 -158 -53 -150 -2 8 -11 46 -20 85 -15 68 -14 73 16
225 25 125 35 159 54 178 13 12 26 22 29 22 10 0 100 63 103 72 11 25 22 1 22
-45z m995 -19 l70 -45 33 -154 c18 -85 32 -165 32 -177 0 -30 -32 -152 -40
-152 -3 0 -13 26 -22 58 -69 250 -84 290 -128 362 -42 68 -46 80 -42 123 3 34
7 45 16 39 6 -5 43 -29 81 -54z m-2874 -116 c-3 -21 -33 -86 -66 -145 -58
-102 -60 -105 -63 -71 -3 27 11 61 60 154 62 119 79 134 69 62z m834 -49 c30
-60 62 -120 72 -135 16 -26 16 -29 1 -44 -14 -15 -20 -8 -68 75 -29 51 -57 94
-61 97 -9 5 -13 114 -4 114 3 0 29 -48 60 -107z m-662 66 c34 -9 37 -12 31
-37 -4 -15 -11 -35 -15 -44 -5 -9 -9 -101 -9 -205 l0 -188 -49 50 c-44 46 -48
55 -55 115 -4 36 -16 100 -27 143 -19 76 -19 118 2 174 9 23 9 23 122 -8z
m568 -33 c9 -49 7 -67 -10 -124 -11 -37 -23 -103 -27 -147 -7 -79 -7 -80 -52
-118 -24 -21 -46 -36 -49 -33 -2 2 -8 91 -13 198 -5 106 -11 204 -12 218 -3
23 3 26 72 46 41 12 76 21 78 20 1 -2 7 -29 13 -60z m-371 -149 c0 -112 -3
-326 -7 -476 l-6 -272 -33 32 c-33 32 -39 47 -84 197 -21 69 -22 88 -18 335 4
249 5 264 27 309 25 52 36 63 66 71 58 14 55 25 55 -196z m125 183 c41 -15 53
-92 61 -381 6 -256 6 -267 -14 -313 -12 -26 -27 -75 -34 -109 -8 -44 -20 -71
-42 -94 -16 -18 -33 -33 -37 -33 -9 0 -23 925 -15 939 7 11 36 7 81 -9z m1353
-238 c-31 -60 -91 -123 -105 -109 -6 6 15 89 43 176 14 41 54 119 78 150 8 11
12 -7 14 -69 3 -77 1 -88 -30 -148z m964 170 c37 -59 106 -282 87 -282 -23 0
-62 37 -93 89 -32 52 -34 63 -38 154 -1 53 -1 97 2 97 3 0 21 -26 42 -58z
m-1695 -217 c40 -49 65 -112 98 -243 9 -35 33 -92 55 -127 21 -35 48 -81 59
-104 l21 -40 -43 19 c-39 17 -51 33 -170 232 -70 117 -135 226 -143 242 -16
29 -16 29 11 24 22 -5 29 0 43 28 9 19 19 31 22 27 3 -5 24 -30 47 -58z
m-1387 19 c11 -31 15 -35 37 -29 l25 6 -28 -48 c-15 -26 -78 -130 -140 -231
-90 -148 -118 -187 -148 -203 -20 -10 -36 -17 -36 -16 0 2 25 49 55 105 30 56
66 138 79 184 49 165 55 180 93 223 21 24 41 44 45 44 3 1 12 -15 18 -35z m87
-159 c-16 -38 -50 -94 -76 -124 -25 -29 -73 -99 -107 -154 -33 -56 -65 -102
-70 -104 -5 -2 -15 6 -22 17 -11 18 3 47 140 272 l153 252 6 -44 c5 -36 0 -59
-24 -115z m1270 -95 c172 -275 169 -270 152 -281 -8 -5 -18 -9 -24 -9 -5 0
-39 48 -73 105 -35 58 -86 132 -113 164 -62 74 -99 156 -99 218 0 27 4 43 9
38 4 -6 71 -111 148 -235z m1189 203 c-15 -114 -13 -161 9 -323 13 -96 22
-176 20 -178 -1 -2 -61 75 -133 171 -124 166 -130 177 -137 233 l-6 60 113 37
c62 20 119 36 126 37 8 0 11 -11 8 -37z m248 -6 l98 -32 -7 -59 c-4 -39 -14
-69 -28 -87 -12 -14 -29 -36 -37 -49 -14 -20 -43 -61 -63 -85 -4 -5 -37 -50
-73 -98 -37 -49 -68 -87 -69 -85 -3 3 12 126 34 272 5 37 8 91 5 120 -15 164
-16 149 14 142 15 -4 71 -21 126 -39z m-880 -82 l16 -64 -67 -118 c-38 -66
-88 -158 -113 -205 -35 -67 -53 -90 -77 -102 -32 -15 -43 -11 -24 10 5 5 33
56 63 114 40 77 59 128 72 192 12 61 29 109 59 162 23 42 45 76 48 76 4 0 14
-29 23 -65z m1434 -12 c31 -53 45 -90 60 -169 17 -86 29 -117 81 -209 34 -59
59 -110 57 -113 -3 -2 -18 5 -33 16 -18 13 -56 70 -98 149 -38 70 -88 158
-112 194 l-44 65 18 72 c9 39 20 69 24 67 3 -3 25 -35 47 -72z m-1298 25 c-1
-53 -34 -123 -130 -279 -59 -97 -118 -199 -130 -228 -12 -28 -25 -51 -29 -51
-4 0 -12 14 -19 32 -11 29 -9 37 22 92 46 84 83 152 155 286 57 106 98 160
122 160 5 0 9 -6 9 -12z m1117 2 c26 -9 46 -42 156 -251 70 -132 127 -244 127
-249 0 -5 -5 -21 -11 -37 l-11 -28 -31 62 c-40 77 -97 176 -107 183 -3 3 -15
21 -26 40 -10 19 -22 39 -27 45 -51 69 -83 130 -91 178 -4 21 -10 45 -13 53
-6 17 -5 17 34 4z m-2662 -397 c21 -67 48 -132 59 -145 57 -63 58 -64 31 -204
-14 -70 -26 -129 -28 -131 -2 -2 -14 32 -27 74 -12 43 -31 94 -41 114 -10 20
-21 60 -25 90 -4 30 -27 108 -51 174 -24 66 -45 124 -46 129 -2 11 75 36 84
27 3 -3 23 -61 44 -128z m402 115 c18 -7 33 -15 33 -19 0 -4 -10 -29 -21 -56
-12 -26 -32 -97 -45 -158 -13 -60 -44 -160 -69 -221 -25 -62 -45 -118 -45
-125 -1 -11 -3 -11 -9 1 -4 8 -14 69 -20 134 l-13 119 39 57 c29 41 48 86 68
161 15 57 30 107 32 112 6 10 11 9 50 -5z m-513 -200 c23 -87 26 -117 26 -270
0 -157 -2 -180 -27 -265 -15 -51 -30 -93 -34 -93 -3 0 -18 17 -32 38 -23 32
-30 63 -53 227 -14 105 -26 208 -25 230 2 90 21 193 46 249 l26 60 24 -40 c13
-21 35 -83 49 -136z m631 105 c46 -96 51 -216 20 -435 -14 -97 -25 -187 -25
-200 0 -31 -57 -117 -64 -97 -40 108 -48 152 -53 309 -5 146 -3 178 16 270 21
100 59 209 72 210 4 0 19 -26 34 -57z m1814 -110 l131 -87 0 -110 c0 -112 -17
-216 -34 -216 -6 0 -74 21 -152 46 l-142 46 -12 61 c-11 58 -10 67 27 204 21
79 41 143 45 143 4 0 66 -39 137 -87z m-300 -67 l43 -144 -22 -60 -22 -60
-121 -36 c-67 -20 -136 -39 -153 -42 l-30 -6 -12 65 c-13 71 -16 246 -4 262
10 15 254 165 267 165 6 0 30 -65 54 -144z m-2015 -307 c14 -52 26 -102 26
-112 0 -15 -22 -103 -71 -289 -9 -34 -13 -38 -44 -38 l-33 0 -7 63 c-6 55 -3
78 25 168 32 103 33 105 27 259 l-6 155 28 -56 c15 -31 40 -99 55 -150z m580
98 c24 -102 21 -519 -3 -516 -7 0 -111 125 -111 133 0 3 15 26 34 50 l33 44
13 181 c7 100 14 180 16 179 1 -2 10 -34 18 -71z m-226 -90 c3 -116 8 -157 29
-224 21 -69 24 -94 18 -148 -3 -36 -11 -67 -15 -70 -5 -3 -20 -3 -34 1 -22 5
-27 18 -60 154 -20 81 -36 157 -36 169 0 11 16 67 36 123 20 57 38 113 41 126
11 46 17 9 21 -131z m-631 -46 c19 -144 24 -163 51 -203 l31 -45 -57 -68 -57
-68 -7 54 c-14 120 -6 489 12 489 4 0 16 -72 27 -159z m2317 -3 c13 -116 7
-179 -28 -268 -28 -70 -35 -81 -39 -60 -3 14 -15 68 -26 120 -11 52 -25 121
-32 154 -11 49 -10 59 2 66 8 5 23 16 34 24 11 8 34 16 51 16 30 0 31 -2 38
-52z m172 17 c25 -20 33 -32 29 -48 -4 -18 -41 -173 -71 -297 -5 -21 -10 -13
-34 52 -33 90 -45 182 -35 268 l7 62 35 -5 c19 -4 50 -18 69 -32z m297 -58
c18 -95 14 -213 -11 -327 -6 -25 -13 -91 -17 -148 l-7 -104 -43 76 c-43 74
-43 76 -50 203 -4 70 -15 172 -24 226 -10 53 -14 97 -9 97 5 0 26 -9 48 -20
22 -11 41 -20 44 -20 3 0 13 25 22 55 10 30 20 55 23 55 3 0 14 -42 24 -93z
m-823 28 c7 -30 17 -55 22 -55 5 0 26 11 48 25 22 14 43 25 46 25 4 0 4 -24 0
-52 -4 -29 -13 -132 -20 -229 l-12 -175 -45 -72 -44 -72 -7 43 c-3 23 -7 71
-7 107 -1 36 -8 92 -16 125 -8 33 -14 104 -15 158 0 93 18 227 31 227 3 0 12
-25 19 -55z m224 -199 l47 -180 -33 -188 c-18 -103 -36 -188 -39 -188 -3 0
-22 56 -43 125 l-38 125 6 137 c7 150 35 368 46 356 4 -4 28 -89 54 -187z
m405 97 c6 -47 16 -160 21 -250 l10 -163 -38 -120 c-21 -66 -41 -122 -43 -124
-5 -5 -58 273 -67 346 -4 36 85 398 98 398 3 0 12 -39 19 -87z m-2460 -276
c19 -90 20 -110 10 -155 l-12 -52 -51 0 c-47 1 -53 3 -73 36 -17 26 -23 50
-23 94 0 32 3 60 8 62 4 2 29 29 57 61 27 31 52 57 55 57 4 0 17 -46 29 -103z
m694 -13 c24 -31 22 -103 -5 -159 -23 -46 -31 -50 -87 -39 -27 6 -33 13 -48
60 -16 51 -16 56 7 146 12 51 25 97 27 101 4 7 58 -48 106 -109z m1245 -341
c-17 -18 -34 -33 -37 -33 -4 0 -16 30 -28 67 l-22 66 32 54 32 54 28 -87 28
-87 -33 -34z m-1138 58 l54 -125 -11 -195 c-7 -115 -8 -217 -3 -246 16 -93 16
-95 -33 -95 l-44 0 -12 128 c-6 70 -20 222 -31 337 -20 202 -20 212 -3 272 10
34 20 59 23 55 4 -4 31 -63 60 -131z m1765 -21 c-10 -33 -21 -63 -24 -65 -4
-2 -21 9 -40 24 l-33 27 26 75 c15 41 29 81 32 89 4 10 15 -2 32 -37 l26 -52
-19 -61z m-2708 40 c5 -43 -54 -651 -64 -661 -5 -3 -22 -9 -39 -12 l-30 -6 11
72 c8 54 8 122 0 267 -13 218 -5 279 49 360 14 22 26 46 26 53 0 55 38 -4 47
-73z m146 -140 l-2 -165 -35 -70 c-19 -38 -40 -88 -46 -110 -6 -22 -26 -69
-45 -105 l-35 -65 5 55 c19 202 47 506 52 563 l6 68 51 -3 51 -3 -2 -165z
m663 157 c0 -1 11 -130 23 -287 12 -157 24 -307 27 -335 5 -61 3 -57 -70 131
-73 189 -104 388 -75 474 11 31 13 32 52 26 23 -4 42 -8 43 -9z m1177 -95 c22
-56 21 -132 -2 -234 -11 -46 -22 -117 -26 -158 -12 -149 -15 -165 -45 -200
l-29 -34 -16 38 c-26 61 -6 269 40 411 19 61 38 138 41 173 7 69 12 69 37 4z
m836 -187 c40 -125 57 -325 32 -387 -30 -80 -59 -27 -82 155 -10 78 -28 187
-40 242 -23 103 -21 127 12 210 11 30 12 29 29 -45 9 -41 31 -120 49 -175z
m-679 -106 l0 -209 -46 -93 -47 -92 -35 75 -35 75 7 114 c9 169 52 316 109
379 l21 22 13 -31 c9 -22 13 -90 13 -240z m500 231 c38 -48 69 -162 95 -347
l17 -122 -39 -70 c-21 -39 -40 -71 -43 -71 -3 1 -24 40 -48 88 l-42 87 -1 210
c-1 151 2 218 11 238 7 15 14 27 16 27 1 0 17 -18 34 -40z m-633 -608 c21 -39
29 -66 26 -85 -5 -25 -9 -27 -58 -27 l-53 0 -7 66 c-6 55 -4 69 11 85 29 32
48 23 81 -39z m788 35 c11 -18 13 -37 7 -83 l-7 -59 -47 -3 c-43 -3 -48 -1
-54 22 -3 15 3 48 18 85 18 49 27 61 45 61 13 0 29 -10 38 -23z"/>
</g>
</svg>
