<?xml version="1.0" encoding="utf-8"?>
<!DOCTYPE svg PUBLIC "-//W3C//DTD SVG 20010904//EN" "http://www.w3.org/TR/2001/REC-SVG-20010904/DTD/svg10.dtd">
<svg height="1000.000000pt" preserveAspectRatio="xMidYMid meet" version="1.0" viewBox="0 0 1000.000000 1000.000000" width="1000.000000pt" xmlns="http://www.w3.org/2000/svg">
<g fill="#000000" stroke="none" transform="translate(0.000000,1000.000000) scale(0.100000,-0.100000)">
<path d="M2555 9530 c-91 -18 -153 -50 -199 -102 -56 -61 -73 -113 -88 -265 -11 -101 -14 -111 -29 -102 -28 15 -48 0 -60 -44 -18 -66 -7 -135 31 -197 44 -72 60 -90 80 -90 14 0 19 -12 24 -57 15 -136 0 -211 -48 -248 -17 -13 -114 -64 -216 -115 -181 -91 -281 -150 -310 -185 -8 -10 -42 -30 -75 -45 -33 -15 -66 -35 -74 -44 -8 -10 -38 -29 -65 -43 -117 -59 -134 -86 -192 -308 -43 -170 -48 -271 -17 -382 l21 -72 -24 -71 c-33 -102 -52 -206 -64 -359 -8 -101 -15 -141 -29 -160 -67 -95 -101 -205 -111 -354 -5 -68 -17 -153 -29 -192 -26 -92 -26 -206 0 -415 15 -124 23 -262 29 -560 9 -393 28 -683 51 -750 19 -58 81 -224 86 -233 7 -12 43 13 55 39 8 16 17 23 28 19 14 -4 23 8 44 60 31 77 33 127 8 163 -10 15 -38 62 -61 105 -34 61 -42 85 -37 108 9 44 73 179 86 179 14 0 27 -34 39 -103 11 -60 38 -110 71 -127 51 -27 79 87 65 262 -9 98 -28 154 -78 226 -49 72 -60 119 -54 227 6 98 19 145 113 397 83 221 95 269 95 379 0 53 -3 112 -6 131 -5 26 -1 44 16 72 18 32 24 61 30 160 9 158 31 228 127 420 l79 157 12 -63 c7 -35 36 -124 64 -198 l52 -135 -2 -253 -1 -252 -32 -52 c-62 -100 -74 -179 -46 -287 11 -45 11 -60 -1 -99 -30 -102 -55 -253 -63 -392 -7 -111 -17 -178 -43 -285 -95 -382 -117 -531 -117 -800 0 -240 28 -596 72 -900 6 -44 10 -129 9 -190 -1 -102 -4 -117 -40 -210 -105 -269 -109 -362 -35 -855 41 -278 48 -348 49 -480 0 -148 -1 -157 -26 -205 -14 -27 -29 -75 -32 -105 -4 -47 -16 -73 -82 -175 -42 -66 -104 -175 -137 -243 -33 -67 -64 -125 -69 -128 -5 -3 -9 -19 -9 -35 0 -31 54 -99 79 -99 6 0 11 -7 11 -16 0 -8 15 -21 34 -29 18 -8 36 -22 40 -31 5 -14 15 -16 54 -11 37 4 52 1 71 -14 54 -44 147 -16 193 59 11 18 36 50 55 70 48 51 64 85 70 151 4 43 12 63 33 86 16 17 42 52 59 79 39 63 40 114 5 204 -24 58 -25 69 -14 96 21 51 22 89 6 153 -21 81 -20 136 5 268 41 221 88 384 146 509 95 205 114 272 114 407 0 99 -33 377 -47 401 -3 4 9 33 25 65 40 76 76 175 90 243 6 30 24 204 41 385 32 351 48 460 110 730 21 94 45 202 51 240 l13 70 7 -55 c4 -30 27 -145 52 -255 74 -326 81 -377 117 -795 12 -129 25 -264 31 -300 11 -73 47 -175 91 -256 l29 -55 -22 -127 c-17 -92 -23 -168 -23 -277 -1 -171 2 -181 105 -407 60 -131 91 -231 133 -428 46 -216 49 -261 24 -361 l-22 -88 23 -49 23 -49 -21 -40 c-57 -112 -51 -173 28 -276 41 -53 50 -74 56 -121 8 -59 19 -80 112 -199 61 -80 87 -97 144 -97 38 0 51 5 67 24 13 17 23 22 33 15 26 -16 78 -10 91 11 7 11 18 20 25 20 18 0 143 117 143 135 0 33 -171 349 -265 488 -27 40 -35 62 -35 96 0 29 -11 66 -31 108 -55 113 -53 183 22 708 46 320 57 481 40 577 -12 68 -64 237 -98 318 -25 59 -28 210 -9 363 26 197 55 496 67 687 21 336 -2 538 -107 965 -38 152 -46 204 -54 335 -8 140 -32 285 -61 378 -8 25 -7 53 6 118 21 106 16 136 -41 241 l-44 83 0 244 0 244 51 138 c28 76 56 167 62 203 l12 65 78 -155 c98 -195 116 -252 127 -412 7 -105 13 -136 32 -170 20 -36 22 -49 15 -87 -4 -25 -6 -88 -4 -140 3 -86 9 -111 62 -260 119 -338 136 -390 146 -470 13 -106 0 -173 -46 -237 -77 -107 -80 -119 -80 -311 0 -157 2 -175 18 -187 44 -32 97 33 116 144 17 105 36 106 82 5 51 -111 49 -127 -16 -240 -31 -54 -59 -110 -62 -126 -9 -45 55 -205 72 -179 10 18 25 13 25 -9 0 -17 45 -58 54 -49 2 2 25 62 50 132 66 181 85 368 92 892 3 228 9 358 25 495 26 230 23 406 -9 490 -15 41 -22 85 -24 170 -5 129 -22 190 -86 301 -37 63 -39 71 -51 210 -14 162 -20 197 -57 320 l-26 86 21 90 c11 50 21 112 21 139 0 63 -30 208 -69 331 -36 116 -69 161 -144 197 -29 13 -68 38 -87 55 -19 17 -51 36 -70 42 -19 6 -55 28 -80 48 -76 62 -98 75 -305 179 -110 56 -212 112 -227 126 -25 24 -48 95 -48 148 0 50 23 148 34 148 18 0 48 37 84 101 36 64 43 143 18 204 -16 37 -26 41 -57 25 -18 -10 -19 -7 -19 55 0 132 -40 264 -98 324 -71 74 -228 115 -347 91z m181 -28 c174 -46 231 -136 241 -379 l6 -123 30 26 c40 33 50 21 55 -64 4 -63 1 -72 -32 -128 -19 -33 -42 -67 -51 -74 -15 -12 -19 -11 -36 10 l-19 25 0 -82 c0 -98 -7 -108 -138 -211 -81 -63 -88 -66 -147 -70 -73 -5 -81 -1 -194 86 -108 84 -121 106 -122 202 0 62 -2 71 -11 52 -18 -36 -39 -22 -86 53 -42 68 -43 71 -38 139 6 86 17 99 54 63 15 -15 30 -27 33 -27 2 0 5 48 5 108 2 124 22 217 62 282 21 35 43 53 92 78 106 53 186 63 296 34z m-325 -1005 c6 -23 43 -123 81 -222 59 -154 70 -192 75 -261 3 -45 2 -99 -1 -120 -7 -36 -12 -27 -96 187 -86 218 -111 305 -126 438 l-7 64 31 -22 c21 -14 35 -36 43 -64z m494 -77 c-16 -87 -66 -233 -168 -484 l-32 -79 -8 64 c-12 94 5 179 72 346 32 82 66 173 76 203 10 30 29 68 44 83 l26 29 3 -33 c2 -18 -4 -76 -13 -129z m-450 70 c10 -11 39 -33 65 -50 40 -25 57 -30 112 -30 68 0 82 6 175 78 18 13 33 20 33 14 0 -12 -37 -113 -100 -277 -54 -140 -66 -208 -54 -311 9 -76 8 -81 -18 -133 -33 -63 -35 -109 -13 -286 22 -183 36 -220 105 -286 65 -63 155 -103 265 -118 51 -8 94 -21 112 -36 2 -1 -18 -23 -43 -49 l-46 -48 6 -62 c17 -189 21 -481 7 -546 -9 -42 -6 -192 5 -267 8 -52 41 -44 119 28 l65 61 0 -36 c0 -33 -4 -38 -52 -62 -84 -42 -114 -70 -147 -135 -53 -106 -38 -201 49 -310 l28 -36 -28 -45 c-16 -26 -92 -172 -170 -325 -78 -155 -154 -292 -171 -310 -65 -67 -182 -70 -251 -5 -15 13 -86 142 -159 286 -72 143 -149 292 -171 331 -24 42 -36 74 -31 81 38 51 82 126 93 158 16 51 7 116 -26 176 -34 63 -65 91 -141 130 -59 29 -63 34 -63 66 0 19 1 34 3 34 2 0 28 -25 59 -55 56 -53 101 -76 118 -59 12 13 14 278 4 414 -7 87 -6 131 4 180 11 50 11 75 3 108 -9 35 -8 52 5 93 22 66 9 113 -47 166 l-41 40 29 11 c15 7 66 18 112 26 155 27 282 113 315 213 21 63 46 257 46 353 0 62 -5 86 -24 122 -22 41 -23 52 -19 163 5 134 16 94 -106 417 -28 76 -51 140 -51 143 0 11 18 4 35 -15z m-127 -128 c-27 -30 -66 -91 -122 -194 -37 -68 -80 -112 -125 -130 -44 -17 -142 -9 -253 20 l-106 27 66 53 c42 33 133 86 242 139 221 109 273 141 291 184 l14 34 8 -53 c8 -49 7 -56 -15 -80z m612 104 c0 -29 83 -84 253 -168 175 -87 253 -133 316 -186 l35 -29 -110 -27 c-243 -58 -299 -35 -409 169 -21 39 -54 91 -74 116 -32 41 -36 51 -33 92 2 26 8 47 13 47 5 0 9 -6 9 -14z m-539 -243 c20 -51 21 -57 7 -87 -58 -120 -194 -183 -304 -141 l-47 18 34 14 c55 23 107 82 156 175 24 48 59 107 76 130 l31 43 12 -48 c7 -27 22 -73 35 -104z m536 115 c11 -13 42 -65 69 -116 59 -113 100 -163 156 -190 l41 -21 -29 -12 c-115 -45 -245 5 -307 119 l-27 49 24 59 c13 33 27 76 31 97 8 43 14 45 42 15z m-473 -275 c27 -73 28 -77 10 -90 -44 -33 -140 -42 -221 -21 l-46 11 50 19 c60 22 122 73 148 122 11 20 22 36 25 36 3 0 18 -35 34 -77z m399 34 c29 -49 93 -98 156 -119 53 -18 39 -26 -64 -35 -69 -5 -166 14 -180 36 -2 4 4 30 15 57 10 27 23 61 29 77 6 15 12 27 15 27 2 0 15 -19 29 -43z m-1058 -52 c50 -14 122 -28 160 -31 39 -4 96 -17 128 -30 143 -57 319 -71 381 -31 26 17 26 17 41 -20 9 -20 18 -48 22 -62 l6 -25 -31 22 c-95 68 -328 43 -510 -53 -79 -42 -83 -43 -67 -19 21 32 23 107 4 130 -30 36 -73 44 -191 38 -104 -6 -115 -5 -138 14 l-25 20 20 22 c21 24 69 49 95 50 8 0 56 -11 105 -25z m1811 5 c53 -26 63 -49 32 -74 -21 -17 -34 -18 -136 -12 -158 9 -202 -12 -202 -96 0 -18 7 -46 15 -62 8 -15 15 -30 15 -32 0 -2 -26 12 -58 31 -117 68 -309 114 -419 100 -29 -3 -73 -17 -98 -29 -25 -13 -45 -22 -45 -21 0 2 9 28 21 58 l21 55 46 -20 c68 -31 197 -22 317 22 50 17 122 36 160 41 39 5 111 19 160 33 113 30 119 31 171 6z m-2023 -77 c16 -15 40 -18 146 -19 96 0 133 -5 157 -17 72 -37 55 -116 -51 -237 -64 -73 -86 -112 -109 -190 -29 -99 -114 -203 -215 -265 -82 -49 -122 -55 -148 -21 -30 37 -58 159 -56 241 3 119 73 380 119 442 13 17 47 43 76 57 64 31 57 30 81 9z m2155 -7 c87 -44 112 -89 162 -282 43 -166 48 -248 21 -354 -22 -87 -50 -130 -84 -130 -30 0 -146 66 -191 108 -55 52 -112 144 -131 210 -21 71 -51 122 -115 192 -84 93 -103 182 -47 224 25 19 40 20 151 18 111 -2 125 -1 147 17 30 26 30 26 87 -3z m-1257 -104 c74 -38 111 -93 117 -171 6 -80 -25 -312 -50 -379 -48 -127 -206 -215 -389 -216 -80 0 -149 31 -223 99 -60 56 -74 59 -21 5 38 -39 39 -41 26 -73 -21 -54 -41 -130 -42 -167 l-1 -35 -8 35 c-16 63 -42 289 -35 300 3 6 -7 27 -23 48 -16 20 -46 63 -66 95 -37 58 -37 59 -26 108 15 62 76 155 138 209 59 52 205 125 302 150 44 11 110 19 161 19 76 1 93 -2 140 -27z m639 -11 c121 -41 211 -94 278 -165 56 -59 112 -163 112 -209 0 -18 -22 -60 -60 -115 -42 -62 -60 -97 -60 -119 0 -39 -28 -259 -37 -293 -5 -19 -8 -8 -14 41 -4 36 -17 89 -29 117 l-23 52 30 28 c16 15 38 38 48 52 11 13 -9 -2 -45 -34 -89 -81 -155 -110 -246 -109 -169 2 -323 86 -373 203 -32 75 -68 336 -57 413 9 58 63 122 130 154 46 22 61 24 151 20 79 -3 120 -11 195 -36z m-1376 -440 c9 -16 27 -43 42 -60 26 -31 27 -35 20 -123 -8 -113 -49 -321 -82 -413 -14 -38 -38 -106 -54 -150 -37 -109 -82 -198 -129 -259 -41 -53 -119 -131 -125 -125 -2 2 -13 33 -25 67 -79 231 -97 500 -46 697 28 109 41 130 96 149 87 32 206 132 255 214 23 39 29 40 48 3z m1825 -30 c57 -79 126 -135 215 -176 l73 -34 26 -78 c48 -146 58 -302 32 -478 -16 -105 -59 -274 -79 -313 -12 -23 -14 -22 -83 51 -84 89 -128 165 -178 307 -21 58 -45 128 -55 155 -29 79 -68 270 -81 389 -11 104 -10 110 10 135 11 14 31 43 43 63 13 21 25 38 28 38 3 0 25 -27 49 -59z m-1729 -216 l12 -101 -47 -107 c-26 -59 -49 -106 -51 -104 -2 1 3 27 12 57 21 79 54 275 54 323 0 65 7 40 20 -68z m1599 -65 c7 -47 19 -112 27 -145 8 -33 17 -69 20 -80 7 -30 -35 50 -66 125 -27 65 -27 68 -16 170 11 116 9 120 35 -70z m-2074 91 c3 -11 -3 -46 -14 -79 -70 -208 -64 -481 18 -742 11 -35 19 -65 17 -67 -5 -5 -87 145 -106 195 -29 76 -33 137 -20 293 14 165 31 267 61 356 21 65 33 77 44 44z m2569 -81 c31 -106 45 -206 53 -387 6 -131 4 -147 -17 -205 -21 -59 -110 -231 -116 -225 -2 2 8 38 22 82 79 248 84 536 15 743 -17 51 -19 67 -10 78 17 21 24 10 53 -86z m-1897 -4 c18 -9 43 -16 58 -16 67 0 -20 -40 -122 -55 -51 -8 -55 4 -23 74 19 40 22 43 38 29 9 -9 31 -23 49 -32z m1278 -55 c7 -23 6 -23 -41 -17 -75 11 -156 38 -142 48 7 4 22 8 33 8 12 0 41 13 65 29 l45 28 16 -36 c9 -20 20 -47 24 -60z m-1190 -29 c44 -37 65 -75 65 -114 0 -33 -11 -69 -26 -87 -12 -14 -173 167 -174 196 0 11 30 18 90 21 14 1 34 -6 45 -16z m1125 1 c11 -10 -40 -83 -99 -140 -35 -35 -67 -63 -71 -63 -4 0 -13 20 -20 44 -16 58 -1 104 47 146 33 29 39 31 87 25 28 -4 53 -9 56 -12z m-1263 -30 c9 -16 30 -45 46 -65 34 -45 21 -49 -47 -17 -58 27 -76 47 -69 82 4 20 11 27 29 27 15 0 30 -10 41 -27z m1337 11 c17 -44 -14 -77 -103 -109 l-43 -15 16 23 c9 12 31 43 49 69 33 49 69 63 81 32z m-1364 -96 c34 -20 41 -30 54 -83 8 -33 13 -61 11 -63 -6 -6 -69 34 -87 55 -15 18 -35 113 -23 113 3 0 24 -10 45 -22z m1370 -2 c0 -63 -13 -88 -58 -117 -25 -16 -49 -29 -52 -29 -3 0 1 29 9 64 14 55 21 66 51 84 46 26 50 26 50 -2z m-1264 -36 c8 0 37 -22 64 -48 47 -46 50 -52 50 -98 0 -27 -5 -66 -11 -88 l-11 -38 -29 28 c-38 36 -97 155 -105 213 -6 39 -5 44 10 38 10 -4 24 -7 32 -7z m1157 -22 c-12 -63 -34 -113 -76 -175 -58 -87 -71 -84 -83 21 -4 35 -2 61 6 76 17 32 86 93 113 102 43 12 47 10 40 -24z m-1211 -158 c4 -75 -9 -73 -39 5 -39 102 -39 98 0 75 33 -20 35 -25 39 -80z m1262 19 c-18 -45 -36 -84 -39 -87 -8 -8 -6 112 3 123 8 12 54 44 64 44 3 1 -9 -36 -28 -80z m-57 -36 c-8 -101 -29 -159 -74 -205 -59 -61 -77 -47 -67 50 5 46 13 64 39 92 18 19 47 59 65 88 17 28 34 52 37 52 3 0 3 -35 0 -77z m-1159 35 c9 -17 36 -55 59 -84 37 -46 43 -61 49 -118 6 -57 4 -66 -11 -72 -27 -11 -90 62 -109 126 -22 75 -32 180 -17 180 7 0 20 -14 29 -32z m-787 -226 c13 -31 48 -100 80 -152 114 -192 128 -232 136 -390 6 -135 -17 -293 -66 -454 -17 -54 -31 -106 -32 -115 0 -9 -11 31 -25 89 -32 140 -45 178 -125 367 -37 90 -80 204 -94 255 -50 183 -26 366 67 524 l23 39 6 -53 c4 -29 17 -78 30 -110z m2783 80 c52 -103 66 -162 66 -278 0 -126 -19 -220 -70 -344 -135 -331 -128 -310 -186 -555 -7 -29 -8 -29 -11 -5 -3 14 -17 68 -33 120 -45 149 -64 263 -64 395 -1 172 23 248 134 430 64 104 90 162 106 235 9 39 18 70 20 70 2 0 19 -30 38 -68z m-836 -115 c-31 -95 -95 -191 -131 -195 -26 -3 -27 -1 -27 40 0 52 17 118 30 118 6 0 27 15 48 34 33 30 55 68 88 151 6 15 9 8 12 -29 2 -32 -5 -73 -20 -119z m-1188 115 c16 -52 59 -112 100 -140 41 -27 47 -41 52 -113 3 -51 2 -54 -22 -56 -51 -5 -141 166 -153 290 -6 65 7 76 23 19z m1643 -137 c17 -22 59 -70 95 -106 l64 -66 -26 -52 c-15 -28 -28 -51 -30 -51 -2 0 -14 10 -28 23 -14 12 -42 37 -62 56 -52 46 -68 90 -73 201 -4 93 -4 94 13 65 9 -16 30 -48 47 -70z m-2063 -122 c-13 -31 -42 -67 -81 -102 -33 -29 -61 -52 -63 -50 -11 12 -46 90 -46 101 1 7 31 43 69 81 37 37 83 92 102 122 l34 54 3 -79 c2 -63 -2 -89 -18 -127z m428 75 c40 -85 87 -146 117 -154 24 -6 25 -10 25 -75 0 -51 -4 -71 -14 -75 -23 -9 -71 22 -120 78 l-46 53 2 117 c2 65 4 118 5 118 0 0 14 -28 31 -62z m1198 -174 c-7 -25 -83 -104 -121 -124 -25 -13 -28 -13 -41 5 -9 13 -14 40 -13 72 2 48 5 55 35 72 37 22 82 85 115 161 l24 55 3 -110 c2 -60 1 -119 -2 -131z m-1650 -6 c3 -12 7 -67 7 -123 0 -96 -3 -110 -53 -258 -29 -87 -55 -155 -57 -153 -2 2 1 34 8 71 14 80 7 316 -10 359 -11 28 -9 32 36 78 26 26 50 48 54 48 4 0 11 -10 15 -22z m2138 -21 l47 -44 -17 -84 c-18 -89 -15 -276 6 -349 8 -29 7 -32 -3 -18 -7 9 -33 74 -57 145 -34 101 -44 146 -48 215 -5 91 4 178 17 178 4 0 29 -20 55 -43z m446 -262 c0 -141 -15 -221 -66 -347 -46 -118 -161 -312 -226 -382 -17 -19 -17 -16 -12 65 12 181 56 349 149 564 53 123 98 250 110 310 l7 40 19 -65 c14 -48 19 -97 19 -185z m-2974 -19 c98 -239 125 -315 149 -422 27 -119 44 -294 29 -294 -25 1 -192 273 -234 381 -47 123 -61 185 -67 309 -5 112 3 194 27 255 12 30 12 29 31 -44 10 -40 39 -124 65 -185z m936 109 c82 -70 114 -161 84 -240 -27 -70 -82 -135 -114 -135 -28 0 -157 93 -175 126 -5 9 -11 50 -14 92 -6 82 3 114 53 200 l25 43 57 -32 c32 -17 69 -41 84 -54z m1156 23 c49 -86 57 -127 43 -208 l-13 -70 -74 -60 c-95 -76 -116 -78 -166 -12 -51 68 -58 85 -58 143 0 60 26 122 67 161 41 38 135 98 155 98 10 0 29 -21 46 -52z m-1276 -365 c98 -76 111 -93 202 -270 47 -93 103 -202 125 -243 21 -41 56 -110 76 -153 40 -82 87 -132 140 -145 35 -10 43 -31 44 -123 1 -75 -15 -169 -65 -375 -19 -78 -34 -152 -34 -163 0 -12 -4 -21 -10 -21 -5 0 -10 19 -10 43 0 126 -50 348 -111 494 -79 187 -117 314 -154 518 -39 210 -56 259 -120 332 -27 31 -34 34 -52 25 -48 -26 -53 -105 -22 -310 33 -222 100 -435 218 -702 28 -63 51 -122 51 -132 0 -28 -43 -132 -123 -298 -86 -179 -132 -302 -142 -383 -6 -44 -12 -58 -27 -63 -28 -9 -33 1 -46 89 -7 43 -43 173 -81 290 -95 290 -96 296 -96 542 0 251 10 310 58 340 69 44 106 128 137 315 31 182 24 287 -25 361 -23 35 -25 79 -3 79 5 0 36 -21 70 -47z m1304 22 c4 -17 1 -32 -10 -43 -51 -57 -63 -200 -31 -382 30 -174 73 -273 134 -305 38 -19 48 -54 62 -219 19 -220 -5 -395 -87 -629 -55 -157 -82 -255 -95 -339 -11 -70 -15 -78 -35 -78 -24 0 -34 17 -34 58 0 64 -50 202 -138 378 -32 66 -76 163 -97 216 l-38 97 20 48 c12 26 43 100 70 163 127 295 203 598 203 813 0 64 -3 80 -23 102 -28 33 -48 26 -86 -29 -54 -79 -69 -122 -101 -301 -40 -224 -65 -312 -141 -493 -67 -159 -100 -291 -120 -471 -15 -131 -11 -137 -68 114 -48 210 -60 306 -52 393 6 64 6 64 45 77 54 19 101 68 133 139 15 34 51 106 80 161 29 55 89 170 133 257 44 86 90 165 103 177 42 38 150 121 158 121 5 0 11 -11 15 -25z m-1366 -99 c28 -64 32 -131 15 -255 -23 -171 -50 -263 -97 -322 -41 -52 -64 -64 -54 -26 27 98 46 214 46 287 0 126 43 375 63 363 5 -3 17 -24 27 -47z m1400 -38 c14 -58 25 -152 30 -248 6 -96 17 -187 30 -239 11 -47 19 -89 17 -95 -7 -20 -75 67 -97 122 -28 75 -60 265 -60 362 0 74 17 147 41 177 6 7 13 13 14 13 2 0 13 -42 25 -92z m789 9 c-5 -38 -11 -213 -13 -390 -4 -303 -16 -526 -36 -696 -9 -82 -88 -313 -105 -308 -25 9 -28 56 -9 144 12 56 19 128 19 198 0 95 -4 121 -28 192 -60 173 -120 179 -142 14 -6 -41 -15 -62 -40 -90 l-34 -36 -10 28 c-14 35 -14 246 -1 314 9 51 55 125 180 294 89 119 175 270 211 371 7 21 14 36 15 35 2 -2 -1 -33 -7 -70z m-2949 -132 c39 -71 98 -159 156 -236 77 -101 138 -193 150 -230 17 -49 27 -220 17 -294 -7 -49 -11 -60 -27 -60 -29 0 -54 43 -71 124 -17 82 -28 101 -56 101 -22 0 -50 -41 -81 -120 -33 -85 -41 -262 -17 -359 23 -89 25 -164 5 -180 -19 -16 -20 -14 -68 122 -52 148 -66 294 -78 827 -5 223 -12 428 -15 455 l-6 50 29 -70 c15 -38 43 -97 62 -130z m897 117 c37 -50 82 -149 89 -194 24 -177 124 -540 175 -640 60 -118 94 -263 120 -513 7 -70 5 -117 -8 -215 l-18 -125 -7 70 c-10 92 -39 257 -44 252 -3 -2 2 -46 10 -98 35 -225 38 -303 16 -540 -12 -122 -23 -226 -26 -230 -9 -15 -82 -30 -111 -23 -76 17 -178 108 -213 187 -34 78 -44 159 -31 253 17 125 43 199 137 397 47 97 95 205 108 238 l23 62 13 -34 c7 -19 25 -72 41 -119 31 -92 39 -93 13 -2 -18 63 -77 215 -119 306 -68 148 -158 406 -190 541 -24 105 -45 261 -45 343 0 109 25 141 67 84z m1129 2 c4 -15 4 -81 1 -148 -11 -238 -79 -474 -252 -876 -92 -215 -131 -360 -161 -605 l-7 -60 -14 105 c-29 217 8 498 92 701 79 194 124 341 166 551 41 204 54 243 116 326 29 39 50 41 59 6z m-587 -756 c-1 -42 -3 -48 -9 -28 -12 36 -12 80 0 80 6 0 10 -24 9 -52z m-872 -120 c-7 -71 9 -274 29 -373 9 -44 36 -138 61 -210 74 -214 93 -283 99 -369 13 -165 -63 -306 -165 -306 -26 0 -27 2 -52 245 -29 284 -36 682 -15 840 20 142 35 225 43 225 3 0 3 -24 0 -52z m1769 -148 c32 -206 22 -576 -27 -1007 -11 -99 -13 -103 -36 -103 -60 0 -121 58 -148 141 -14 41 -16 75 -13 163 5 102 10 124 58 261 98 282 117 369 127 595 8 157 8 157 39 -50z m-2202 -60 c29 -50 46 -91 46 -112 0 -30 -4 -26 -50 52 -27 47 -50 97 -50 112 0 16 2 28 4 28 2 0 25 -36 50 -80z m2642 27 c-3 -18 -21 -55 -39 -83 -19 -28 -37 -59 -42 -70 -8 -17 -9 -16 -13 9 -2 19 11 52 45 111 48 84 60 92 49 33z m-2658 -107 c44 -73 48 -92 32 -136 -16 -41 -34 -15 -54 81 -9 44 -19 90 -22 103 -10 37 1 25 44 -48z m2652 -41 c-22 -109 -34 -135 -50 -109 -20 32 -10 87 28 153 20 36 38 64 40 62 2 -1 -7 -49 -18 -106z m-1006 40 c3 -16 46 -114 95 -217 105 -220 134 -299 151 -405 18 -108 8 -204 -28 -281 -40 -85 -82 -130 -157 -167 -53 -26 -70 -30 -104 -24 -23 4 -47 13 -55 20 -13 14 -32 180 -43 385 -7 129 8 304 38 453 20 101 75 267 89 267 4 0 10 -14 14 -31z m-934 -741 c0 -94 48 -214 107 -275 72 -73 170 -105 241 -80 19 7 22 5 22 -17 0 -82 -114 -311 -212 -426 -134 -159 -178 -247 -197 -400 -20 -152 -34 -496 -28 -688 6 -223 17 -274 73 -347 42 -56 54 -117 30 -163 -21 -41 -20 -67 6 -121 12 -25 24 -69 26 -98 4 -45 0 -59 -23 -96 -37 -57 -66 -88 -76 -81 -5 3 -9 -14 -10 -38 -1 -74 -22 -127 -79 -201 -98 -127 -112 -139 -167 -135 -39 2 -50 7 -62 30 -15 26 -13 31 27 110 29 57 36 76 21 61 -12 -11 -38 -54 -58 -94 -35 -71 -38 -74 -71 -74 -28 0 -36 4 -38 22 -3 20 24 79 70 151 11 18 18 36 15 39 -8 7 -107 -147 -107 -166 0 -8 -6 -11 -16 -7 -9 3 -18 6 -20 6 -16 0 3 58 40 120 25 41 43 76 40 79 -2 2 -6 2 -7 0 -14 -16 -96 -141 -100 -151 -3 -10 -9 -9 -22 3 -20 19 -14 35 42 108 18 24 33 49 33 55 -1 13 -62 -56 -87 -96 -20 -32 -33 -36 -33 -10 0 26 123 262 212 404 65 105 80 136 84 180 4 29 17 75 30 102 13 28 24 57 24 65 0 8 13 35 29 60 73 115 79 173 85 781 l5 515 -42 100 c-41 99 -41 101 -43 235 -2 74 -7 164 -13 200 -16 93 -15 95 21 97 81 6 158 110 166 225 4 56 5 58 33 58 27 0 29 -2 29 -42z m1263 -18 c8 -71 24 -113 62 -158 31 -37 72 -61 111 -64 l26 -3 -7 -65 c-5 -36 -9 -127 -11 -202 -2 -143 -7 -164 -58 -288 l-31 -75 5 -550 6 -550 27 -80 c14 -44 38 -97 52 -117 14 -20 25 -43 25 -50 0 -7 14 -42 30 -76 18 -39 30 -80 30 -105 0 -48 0 -46 99 -204 41 -65 93 -156 115 -203 23 -47 52 -102 64 -123 23 -36 24 -67 3 -67 -5 0 -12 8 -15 18 -8 23 -95 120 -96 106 0 -6 7 -17 14 -24 32 -26 78 -109 71 -130 -7 -21 -35 -28 -35 -9 0 16 -90 152 -97 145 -3 -3 12 -36 34 -73 50 -86 56 -102 42 -119 -15 -19 -39 -18 -39 2 0 18 -82 148 -100 159 -14 8 8 -35 50 -102 49 -76 35 -130 -27 -107 -17 6 -31 26 -47 66 -19 46 -76 133 -76 115 0 -2 16 -34 35 -71 19 -37 35 -78 35 -91 0 -33 -26 -55 -65 -55 -47 0 -76 15 -105 57 -14 19 -44 57 -67 84 -55 64 -60 74 -73 151 -8 52 -17 73 -43 102 -82 89 -92 150 -42 263 l26 57 -21 48 c-27 62 -19 114 26 171 66 83 69 102 69 487 0 356 -13 556 -41 652 -26 87 -79 177 -170 287 -107 131 -199 307 -220 425 -6 37 -6 38 17 30 42 -16 114 -8 163 17 100 50 165 156 188 306 9 66 13 73 33 73 20 0 23 -6 28 -60z m-1472 -750 l40 -84 -3 -560 c-4 -554 -4 -562 -27 -631 -13 -39 -31 -82 -41 -95 -17 -23 -17 -22 -19 51 -2 89 -10 158 -62 529 -48 342 -56 456 -40 542 13 65 101 341 108 334 2 -2 22 -41 44 -86z m1726 -78 c62 -184 67 -283 28 -557 -14 -104 -37 -269 -51 -365 -13 -96 -27 -223 -31 -282 -3 -59 -10 -105 -14 -102 -4 2 -18 30 -29 62 -44 114 -50 204 -50 732 l0 495 42 93 c31 69 44 89 51 77 4 -9 29 -77 54 -153z m-1232 -25 c20 -143 20 -308 -1 -378 -16 -54 -50 -137 -107 -259 -16 -36 -35 -80 -42 -99 -6 -19 -16 -36 -22 -38 -17 -6 -82 56 -106 101 -11 23 -26 64 -32 93 -12 59 -4 234 15 315 15 64 61 159 103 215 18 23 61 80 97 128 75 99 69 104 95 -78z m692 125 c12 -20 51 -73 88 -116 77 -93 139 -214 155 -306 7 -36 13 -117 13 -180 2 -105 0 -120 -24 -170 -28 -59 -58 -96 -100 -124 -26 -17 -27 -16 -33 11 -4 15 -30 78 -58 138 -108 237 -112 252 -112 415 0 137 27 370 43 370 3 0 16 -17 28 -38z m-924 -875 l60 -59 -18 -76 c-10 -43 -21 -81 -25 -85 -12 -13 -59 55 -81 118 -12 35 -21 93 -24 153 l-5 97 17 -45 c10 -28 38 -67 76 -103z m1185 41 c-6 -109 -35 -200 -77 -241 l-28 -29 -22 88 -22 88 28 21 c46 33 82 76 100 122 10 24 20 43 22 43 2 0 1 -42 -1 -92z m-1230 -219 c12 -20 30 -43 40 -52 18 -17 18 -19 -1 -115 -10 -53 -22 -131 -26 -172 l-7 -75 -22 43 c-30 56 -42 165 -41 367 l0 160 18 -61 c9 -33 27 -76 39 -95z m1240 -109 c-4 -177 -6 -200 -27 -247 -13 -29 -26 -53 -30 -53 -3 0 -7 26 -8 58 -2 31 -12 108 -24 170 l-21 113 25 27 c34 37 66 99 75 147 6 38 7 38 10 10 2 -16 2 -118 0 -225z" id="chest"/>
<path d="M2393 9018 c-33 -16 -28 -37 12 -54 56 -23 135 -17 135 11 0 42 -94 69 -147 43z m34 -28 c2 -22 -4 -24 -26 -11 -15 10 -7 31 12 31 7 0 13 -9 14 -20z m91 -12 c-2 -6 -10 -14 -16 -16 -7 -2 -10 2 -6 12 7 18 28 22 22 4z" id="abs"/>
<path d="M2765 9020 c-12 -4 -27 -16 -35 -25 -13 -15 -12 -19 5 -31 37 -27 139 -12 152 22 13 35 -66 57 -122 34z m104 -19 c11 -7 9 -11 -8 -20 -18 -10 -21 -9 -21 9 0 22 7 25 29 11z m-103 -39 c-10 -10 -29 15 -21 28 6 9 10 8 17 -4 6 -10 7 -20 4 -24z" id="biceps_left"/>
<path d="M2577 8756 c22 -12 101 -12 113 0 5 5 -19 9 -61 10 -50 0 -65 -3 -52 -10z" id="biceps_right"/>
<path d="M2505 8640 c3 -5 25 -9 48 -9 40 1 40 2 12 9 -44 11 -67 11 -60 0z" id="quads_left"/>
<path d="M2695 8640 c-28 -7 -28 -8 12 -9 23 0 45 4 48 9 7 11 -16 11 -60 0z" id="quads_right"/>
<path d="M2432 7125 c-158 -65 -189 -98 -199 -212 -6 -85 7 -123 42 -123 34 0 223 92 259 126 83 79 89 245 8 244 -15 -1 -64 -16 -110 -35z m138 6 c14 -28 12 -106 -4 -145 -18 -42 -73 -87 -161 -131 -74 -36 -122 -44 -143 -23 -20 20 -15 125 9 168 28 49 141 117 234 140 47 12 54 11 65 -9z" id="deltoid_left"/>
<path d="M2688 7146 c-47 -46 -23 -171 44 -233 32 -30 223 -123 253 -123 33 0 45 26 45 97 0 124 -26 159 -162 222 -106 49 -158 60 -180 37z m180 -52 c106 -51 139 -89 148 -170 11 -108 -37 -128 -162 -65 -105 53 -153 95 -164 146 -16 70 -12 112 12 129 28 20 52 14 166 -40z" id="deltoid_right"/>
<path d="M2423 6831 c-129 -61 -193 -155 -193 -282 0 -101 22 -120 103 -89 68 26 71 25 19 -5 -52 -29 -76 -56 -102 -110 -41 -84 -11 -184 55 -185 22 0 241 72 275 90 17 9 20 21 20 89 0 98 -12 135 -51 151 -28 12 -89 9 -134 -5 -16 -6 -17 -5 -5 4 8 6 44 20 79 31 107 34 114 47 102 197 -7 93 -11 109 -31 125 -31 25 -65 23 -137 -11z m111 9 c32 -12 46 -60 46 -157 0 -119 14 -107 -249 -207 -61 -24 -91 2 -91 78 0 123 86 228 229 281 20 8 37 14 38 14 1 1 13 -3 27 -9z m13 -368 c20 -13 43 -78 43 -122 0 -80 -15 -94 -156 -140 -69 -22 -134 -38 -143 -35 -26 8 -42 43 -43 95 0 85 73 170 172 201 33 10 112 11 127 1z" id="traps"/>
<path d="M2706 6847 c-10 -7 -22 -33 -27 -58 -11 -61 -11 -196 1 -219 5 -10 31 -26 57 -36 27 -9 94 -35 151 -57 l102 -41 23 22 c19 19 22 33 22 95 -1 124 -62 211 -190 273 -74 36 -111 42 -139 21z m152 -41 c104 -53 162 -144 162 -255 0 -90 -33 -102 -145 -53 -39 16 -88 35 -110 42 -78 24 -89 49 -79 174 11 141 42 158 172 92z" id="calves_left"/>
<path d="M2707 6489 c-30 -18 -47 -73 -47 -147 0 -54 4 -72 18 -85 21 -19 246 -97 280 -97 13 0 34 12 49 26 23 23 25 31 21 89 -5 88 -41 138 -128 183 -71 36 -162 51 -193 31z m194 -45 c87 -47 138 -153 109 -225 -21 -51 -44 -52 -174 -10 -64 21 -125 46 -135 56 -39 34 -36 136 5 194 16 22 22 23 79 18 43 -3 80 -14 116 -33z" id="calves_right"/>
<path d="M2405 6165 c-35 -15 -77 -43 -104 -69 -39 -39 -45 -51 -49 -98 -2 -33 4 -93 17 -153 55 -268 95 -364 178 -432 51 -41 116 -64 133 -47 4 5 13 173 20 373 13 397 11 409 -41 436 -40 21 -85 18 -154 -10z m164 -29 c24 -25 26 -32 26 -124 0 -176 -18 -587 -26 -609 -11 -31 -36 -29 -91 6 -93 59 -134 145 -183 385 -33 159 -33 220 1 273 61 93 211 131 273 69z" id="lats"/>
<path d="M2703 6179 c-12 -7 -29 -27 -39 -46 -14 -32 -15 -57 -5 -262 6 -124 11 -283 11 -353 0 -69 3 -133 6 -142 13 -35 104 -3 164 57 52 51 88 134 127 287 42 166 53 292 29 338 -43 83 -222 157 -293 121z m125 -21 c62 -15 118 -51 142 -91 31 -51 34 -102 11 -222 -50 -256 -99 -370 -186 -430 -33 -23 -61 -35 -76 -33 -22 3 -24 9 -30 83 -4 44 -10 204 -13 355 -8 297 -6 312 44 337 31 16 49 16 108 1z" id="forearm_left"/>
<path d="M1830 3068 c0 -22 78 -136 105 -154 27 -18 54 -9 123 38 64 44 162 122 157 126 -1 2 -45 -26 -97 -61 -122 -84 -149 -98 -171 -86 -9 6 -40 42 -67 81 -28 39 -50 64 -50 56z" id="forearm_right"/>
<path d="M3050 3075 c21 -26 166 -132 213 -157 39 -20 40 -20 66 -1 31 23 111 138 111 160 0 9 -22 -15 -49 -53 -76 -108 -77 -109 -137 -78 -27 15 -56 32 -64 38 -50 40 -153 107 -140 91z" id="muscle_14"/>
<path d="M7268 9525 c-116 -29 -177 -74 -221 -160 -23 -45 -47 -175 -47 -250 0 -62 -1 -65 -19 -55 -31 16 -41 12 -57 -25 -25 -61 -18 -140 18 -204 39 -69 57 -91 86 -102 18 -7 22 -16 22 -49 0 -23 9 -59 19 -80 17 -36 18 -44 5 -88 -8 -27 -24 -59 -35 -71 -12 -12 -91 -56 -177 -97 -271 -130 -295 -144 -382 -215 -25 -20 -61 -42 -80 -48 -19 -6 -51 -25 -70 -42 -19 -17 -58 -42 -87 -55 -75 -36 -108 -81 -144 -197 -39 -123 -69 -268 -69 -331 0 -27 10 -89 21 -139 l21 -90 -26 -86 c-37 -123 -43 -159 -57 -320 -11 -139 -13 -146 -51 -210 -60 -103 -88 -203 -88 -319 0 -76 -5 -109 -22 -152 -33 -84 -36 -266 -9 -495 17 -137 23 -257 26 -490 2 -171 11 -406 20 -524 l16 -215 51 -140 c27 -78 51 -142 53 -144 8 -9 38 15 51 40 12 23 18 27 28 19 15 -12 26 7 61 101 22 60 16 84 -38 144 -35 40 -45 61 -56 115 -14 73 -10 97 29 185 44 99 64 97 81 -7 18 -99 49 -149 95 -149 39 0 46 36 42 210 -4 170 -10 191 -83 293 -68 96 -67 231 6 436 155 438 153 430 157 536 2 55 0 118 -5 140 -7 33 -5 47 15 82 19 34 24 65 32 170 5 79 16 153 29 194 26 82 169 367 175 348 2 -8 9 -36 16 -63 6 -27 33 -109 60 -183 l50 -135 0 -236 0 -236 -39 -76 c-60 -115 -67 -154 -46 -260 13 -68 14 -97 6 -122 -30 -93 -53 -238 -61 -378 -7 -132 -15 -182 -53 -335 -106 -424 -129 -628 -108 -965 12 -194 41 -495 66 -690 9 -69 14 -165 12 -240 -4 -118 -7 -132 -50 -256 -25 -72 -51 -161 -58 -199 -17 -97 -6 -380 21 -520 11 -60 32 -177 46 -260 44 -253 35 -436 -26 -541 -10 -17 -21 -45 -25 -62 -5 -25 -20 -40 -67 -68 -33 -20 -87 -59 -119 -86 -32 -26 -68 -48 -79 -48 -76 0 -108 -78 -50 -122 17 -12 30 -30 30 -39 0 -29 58 -65 160 -100 54 -19 125 -53 166 -81 44 -29 91 -52 124 -59 97 -21 228 8 275 60 15 18 20 41 23 116 4 82 0 110 -34 243 l-37 151 18 40 c16 37 16 47 4 123 -37 225 6 451 146 768 26 58 62 155 82 215 42 133 41 185 -7 345 -60 197 -60 195 -37 232 33 54 95 182 116 240 27 71 37 139 61 418 36 423 43 469 121 811 27 119 49 238 50 265 0 40 5 27 24 -71 13 -66 37 -178 54 -250 59 -252 77 -384 116 -850 9 -104 23 -219 31 -255 8 -36 47 -129 85 -207 l71 -142 -43 -148 c-70 -241 -62 -315 61 -598 66 -152 129 -338 146 -435 18 -100 17 -252 -1 -340 -14 -68 -14 -73 6 -120 17 -41 19 -54 10 -82 -27 -84 -62 -240 -67 -303 -15 -168 51 -231 241 -230 86 1 91 3 197 71 37 24 102 55 145 69 110 35 156 63 168 103 5 17 13 32 17 32 16 0 48 40 48 60 0 31 -44 70 -79 70 -22 0 -45 13 -80 44 -27 24 -81 65 -120 90 -52 33 -71 51 -71 67 0 12 -8 36 -19 53 -44 74 -56 134 -55 286 1 124 7 179 42 375 54 298 66 412 59 560 -7 134 -18 183 -78 341 -40 107 -41 111 -41 239 0 77 11 217 26 344 45 368 59 583 53 831 -6 257 -18 340 -98 670 -42 172 -52 228 -59 350 -8 137 -32 288 -63 392 -13 40 -13 54 0 100 9 32 13 81 10 125 -3 61 -11 84 -51 164 l-48 93 4 230 4 231 52 140 c29 76 58 164 65 193 l12 54 77 -149 c95 -187 118 -262 128 -418 5 -88 12 -129 26 -155 16 -30 18 -53 16 -170 -4 -156 0 -172 113 -475 77 -206 95 -279 95 -385 0 -84 -18 -135 -71 -201 -39 -49 -54 -100 -63 -207 -15 -174 13 -289 64 -262 34 18 60 67 74 140 23 122 40 118 97 -19 29 -70 31 -80 20 -119 -6 -23 -11 -51 -11 -63 0 -11 -22 -47 -50 -80 -59 -71 -62 -95 -23 -187 20 -48 30 -61 43 -57 11 4 20 -3 28 -19 13 -28 48 -51 57 -37 3 6 26 67 51 138 41 115 47 144 60 288 9 88 19 340 24 560 6 269 14 434 24 505 9 58 19 168 22 245 5 124 3 148 -16 215 -13 44 -25 125 -30 197 -4 67 -16 145 -25 175 -20 60 -71 165 -91 188 -8 9 -17 66 -24 145 -13 159 -32 269 -64 362 l-24 70 24 99 c33 132 23 225 -47 455 -38 125 -59 154 -142 199 -37 20 -77 46 -90 58 -12 11 -47 31 -77 45 -30 13 -62 32 -70 42 -29 36 -157 111 -295 174 -199 91 -267 132 -286 173 -29 60 -31 90 -9 133 11 21 20 59 20 82 0 35 3 43 18 43 22 0 38 17 82 90 38 62 49 131 31 197 -12 44 -32 59 -60 44 -15 -9 -18 1 -29 102 -15 155 -33 205 -90 267 -37 40 -62 56 -115 76 -86 31 -184 38 -259 19z m233 -30 c75 -27 127 -63 153 -108 38 -65 58 -159 60 -279 0 -60 3 -108 5 -108 3 0 18 12 33 27 37 36 48 23 54 -63 5 -68 4 -71 -38 -139 -47 -75 -68 -89 -86 -53 -9 19 -11 11 -11 -49 -1 -69 -15 -123 -33 -123 -4 0 -9 10 -9 23 -1 15 -3 17 -6 6 -2 -10 3 -45 12 -79 9 -34 14 -64 11 -67 -8 -8 -80 108 -126 201 -49 100 -79 133 -108 117 -12 -6 -23 -19 -27 -30 -10 -33 -14 -284 -5 -348 16 -113 77 -219 171 -292 l47 -38 -54 -41 c-29 -23 -69 -63 -89 -89 -39 -54 -75 -156 -74 -212 0 -28 4 -22 15 33 9 38 27 92 41 120 27 54 128 160 162 171 13 4 46 -4 84 -19 86 -34 231 -57 365 -59 95 0 112 -3 112 -17 0 -51 -51 -73 -214 -90 -203 -21 -224 -63 -160 -324 35 -144 40 -227 20 -306 -21 -83 -91 -209 -211 -379 -104 -149 -150 -201 -177 -201 -16 0 -18 10 -18 92 0 50 -2 89 -5 87 -2 -3 -5 -50 -6 -104 -1 -78 2 -101 14 -110 10 -7 20 -42 27 -96 23 -173 111 -537 149 -609 23 -44 56 -62 102 -54 31 4 57 -5 163 -56 69 -34 126 -63 126 -66 0 -2 -23 5 -50 16 -67 26 -125 25 -180 -2 -76 -39 -271 -293 -309 -403 -12 -34 -6 -27 42 54 26 45 40 57 75 69 28 9 59 12 87 7 48 -7 268 -111 323 -152 39 -29 39 -48 3 -145 -35 -96 -27 -158 54 -418 43 -140 35 -210 -24 -210 -25 0 -368 111 -436 141 -47 20 -111 75 -136 116 -20 32 -23 53 -27 177 -3 104 0 164 12 230 10 48 15 90 13 92 -2 3 -12 -35 -22 -83 -33 -172 -31 -166 -39 -88 -4 39 -13 93 -21 120 -17 56 -17 57 6 -109 16 -114 7 -270 -18 -327 -20 -45 -69 -92 -129 -122 -51 -26 -416 -147 -444 -147 -46 0 -55 14 -54 82 1 45 14 100 43 188 66 199 70 267 22 400 -29 81 -21 90 165 183 138 70 190 85 245 70 30 -8 38 -8 29 1 -6 6 -42 11 -80 11 -66 0 -75 -3 -212 -74 -109 -56 -162 -91 -220 -144 l-78 -69 0 78 c0 82 16 191 46 307 15 60 22 73 57 98 53 39 138 69 193 69 61 0 112 -28 174 -97 60 -67 140 -176 140 -191 0 -5 7 -15 15 -22 9 -7 31 -40 50 -74 41 -72 46 -68 9 7 -74 146 -228 340 -300 376 -53 27 -115 26 -186 -3 -97 -40 -65 -19 75 48 114 55 139 64 173 59 44 -6 84 18 108 66 36 69 146 553 146 641 0 23 7 41 20 53 19 16 20 29 20 340 0 178 2 386 4 463 4 120 3 127 -4 49 -4 -49 -8 -251 -9 -447 -1 -228 -5 -359 -11 -363 -23 -14 -55 11 -112 88 -98 132 -226 330 -261 404 -30 64 -32 75 -32 178 0 86 7 137 29 230 58 245 36 283 -171 305 -158 18 -190 31 -207 86 -6 21 -4 22 111 23 135 0 261 19 348 51 33 12 68 24 78 27 17 5 81 -40 134 -96 48 -51 87 -145 102 -246 8 -59 9 -59 10 -15 3 105 -59 242 -136 307 -22 17 -49 40 -61 50 l-23 18 46 35 c69 54 132 142 156 220 18 60 20 89 17 250 -3 166 -5 183 -22 196 -11 8 -24 14 -28 14 -19 0 -61 -58 -93 -127 -34 -74 -114 -203 -125 -203 -4 0 1 33 11 73 22 84 24 115 5 72 l-13 -30 -12 24 c-7 13 -13 57 -14 98 -1 72 -1 74 -18 52 -15 -20 -19 -21 -34 -9 -9 7 -32 41 -51 74 -33 56 -36 65 -32 128 5 85 15 97 55 64 l30 -26 6 123 c10 241 66 331 237 379 74 21 170 18 241 -7z m-161 -741 c12 -31 12 -225 1 -318 -13 -94 -59 -183 -135 -261 -73 -75 -115 -97 -243 -130 -74 -20 -134 -28 -243 -32 -135 -5 -149 -4 -197 17 -29 12 -57 28 -63 35 -18 22 100 108 240 176 286 139 326 161 356 188 57 52 115 134 161 226 25 49 52 98 61 108 22 25 51 21 62 -9z m105 20 c9 -4 37 -48 62 -98 59 -118 112 -195 165 -241 24 -20 117 -73 208 -116 223 -107 256 -125 319 -173 93 -71 87 -63 66 -86 -47 -52 -238 -66 -420 -31 -183 35 -269 80 -352 185 -87 111 -103 174 -103 396 0 163 6 182 55 164z m-978 -730 c21 -14 50 -28 66 -31 21 -4 27 -11 27 -30 0 -56 84 -103 183 -103 26 0 47 -4 47 -8 0 -5 -19 -19 -42 -32 -24 -13 -61 -41 -84 -62 l-42 -39 -17 50 c-22 68 -91 143 -167 180 -34 17 -69 31 -80 31 -33 0 -19 27 25 49 23 12 43 21 44 21 1 0 19 -12 40 -26z m1905 -5 c15 -11 28 -24 28 -28 0 -4 -21 -12 -47 -19 -98 -26 -193 -114 -225 -210 l-14 -42 -19 20 c-11 12 -51 42 -90 68 l-70 47 77 6 c97 8 143 34 158 88 8 31 16 40 39 44 16 3 42 17 57 31 33 29 60 28 106 -5z m-1949 -81 c60 -30 128 -98 153 -153 34 -72 33 -163 -2 -233 -30 -60 -66 -85 -197 -136 -123 -49 -160 -70 -225 -131 -33 -31 -63 -52 -65 -47 -3 4 -13 45 -23 92 -21 103 -15 176 26 335 51 197 76 238 174 288 55 27 83 24 159 -15z m2063 6 c68 -32 94 -67 127 -169 70 -213 85 -348 53 -473 l-19 -74 -41 40 c-71 68 -123 99 -249 148 -143 55 -187 92 -212 176 -20 69 -19 107 6 174 30 80 115 160 204 192 47 17 72 14 131 -14z m-1586 -110 c76 -30 87 -96 45 -255 -14 -51 -28 -107 -31 -124 -3 -16 -16 -43 -29 -58 l-22 -29 -74 35 c-43 20 -99 57 -133 89 -59 53 -59 54 -48 87 7 19 12 55 12 80 1 43 4 49 55 90 65 53 144 101 167 101 10 0 36 -7 58 -16z m1062 -15 c29 -17 74 -49 99 -70 44 -36 47 -43 53 -101 4 -34 12 -71 18 -82 9 -17 4 -26 -39 -66 -45 -42 -158 -109 -208 -124 -28 -8 -48 31 -85 169 -50 185 -38 271 43 294 51 15 63 13 119 -20z m-1315 -339 c31 -28 90 -67 132 -88 l77 -37 -40 -77 -40 -78 -58 0 c-64 0 -114 17 -140 46 -9 11 -25 63 -35 118 l-19 99 31 32 c16 18 32 33 34 34 2 0 28 -22 58 -49z m1548 -112 c-10 -51 -22 -101 -27 -111 -15 -30 -87 -57 -150 -57 l-58 0 -37 73 c-21 39 -39 74 -40 77 -2 3 33 23 77 44 44 22 103 61 132 87 l53 48 34 -34 34 -33 -18 -94z m-1646 -134 l43 -216 -85 -172 c-47 -94 -93 -200 -102 -236 -20 -78 -35 -107 -71 -144 -28 -27 -94 -66 -113 -66 -5 0 4 28 21 62 36 74 136 365 139 405 5 63 1 73 -30 73 -21 0 -37 -10 -57 -32 -61 -74 -149 -316 -169 -467 -7 -54 -7 -54 -24 -32 -10 13 -35 71 -57 129 -37 101 -39 112 -37 209 3 127 25 265 59 375 23 73 32 89 79 133 29 28 78 65 109 83 55 34 222 110 241 111 6 1 30 -96 54 -215z m1767 186 c111 -44 151 -67 224 -123 92 -72 104 -89 133 -186 31 -103 44 -179 56 -326 l9 -110 -38 -112 c-39 -117 -67 -171 -79 -157 -4 5 -13 43 -19 86 -21 142 -127 401 -177 434 -38 25 -69 15 -73 -23 -4 -37 84 -313 134 -422 19 -41 32 -76 30 -79 -3 -2 -26 6 -51 18 -64 31 -108 93 -134 190 -13 46 -55 144 -101 235 -44 86 -80 166 -80 179 0 12 18 112 40 221 22 109 40 200 40 202 0 6 10 3 86 -27z m-1402 -189 c-2 -2 -28 -9 -59 -16 -39 -9 -55 -10 -55 -2 0 6 21 48 47 94 l48 83 11 -78 c6 -42 10 -79 8 -81z m992 46 c20 -38 34 -70 32 -73 -5 -4 -106 20 -112 27 -1 2 -1 40 2 83 l4 79 19 -24 c10 -13 35 -55 55 -92z m-1306 -67 c53 -29 153 -30 293 -4 27 5 37 3 37 -6 0 -47 164 -313 306 -498 44 -57 64 -91 64 -111 0 -81 -52 -328 -115 -547 -34 -118 -61 -164 -96 -164 -26 0 -43 32 -73 137 -24 88 -110 282 -233 527 -80 160 -137 321 -173 491 -17 83 -34 158 -36 168 -6 20 0 21 26 7z m1545 -92 c-52 -260 -103 -403 -255 -708 -115 -230 -151 -316 -181 -428 -24 -89 -37 -107 -73 -98 -35 9 -55 53 -99 211 -51 185 -75 295 -90 415 l-13 105 76 100 c111 145 215 307 263 408 l42 88 35 -6 c152 -26 237 -24 288 4 25 14 25 2 7 -91z m-1777 -235 c-6 -66 -92 -322 -139 -415 -30 -59 -45 -79 -64 -84 -14 -4 -28 -4 -30 -2 -9 9 26 193 50 265 32 93 99 228 130 259 13 13 32 24 41 24 14 0 16 -8 12 -47z m2059 13 c69 -78 154 -307 170 -458 5 -52 4 -58 -13 -58 -10 0 -24 4 -31 8 -37 24 -170 381 -180 485 -7 69 8 76 54 23z m-2371 -473 c-2 -18 -15 -48 -28 -67 -25 -37 -144 -166 -153 -166 -12 0 -4 181 11 231 16 53 61 150 92 197 15 23 16 21 49 -70 22 -61 32 -104 29 -125z m2749 108 c20 -40 43 -104 51 -142 14 -67 18 -199 6 -199 -16 0 -146 152 -168 198 -26 51 -26 54 -11 90 9 20 26 65 38 100 25 72 24 73 84 -47z m-1957 -162 c94 -186 139 -299 165 -412 l15 -69 -26 7 c-32 8 -70 34 -151 104 -103 89 -101 81 -101 335 0 121 2 217 4 215 2 -2 44 -83 94 -180z m1134 -53 l-3 -229 -62 -60 c-64 -63 -170 -137 -194 -137 -38 0 41 228 162 470 53 106 97 191 98 189 1 -2 1 -107 -1 -233z m-1612 9 c-8 -37 -27 -74 -63 -124 -47 -64 -53 -69 -68 -55 -26 24 -67 124 -71 174 l-3 44 59 21 c36 12 77 36 105 61 l46 42 3 -55 c2 -30 -2 -79 -8 -108z m2125 66 c31 -12 61 -21 67 -21 7 0 9 -18 5 -55 -5 -54 -31 -117 -65 -162 l-17 -23 -44 57 c-66 86 -81 125 -81 221 l0 84 39 -40 c24 -24 63 -49 96 -61z m-2385 -47 c0 -34 -53 -171 -129 -331 -76 -162 -110 -261 -127 -368 l-8 -50 -8 40 c-4 22 -11 112 -14 201 -10 241 2 280 132 416 45 48 90 105 100 127 l18 40 18 -30 c10 -16 18 -36 18 -45z m2674 -94 c101 -110 124 -161 133 -287 7 -91 -15 -353 -29 -353 -4 0 -8 15 -8 33 0 62 -40 191 -96 312 -96 205 -135 296 -148 349 -12 45 -11 53 7 84 l20 33 17 -38 c9 -21 56 -81 104 -133z m-2634 92 c0 -41 33 -138 60 -179 17 -24 30 -48 30 -52 0 -5 -12 -30 -27 -56 -24 -44 -27 -46 -40 -29 -34 47 -56 130 -57 214 -1 47 2 93 6 103 10 22 28 22 28 -1z m2470 -30 c16 -71 -10 -213 -51 -281 -15 -22 -29 -28 -29 -11 0 6 -11 28 -25 50 l-25 39 29 43 c31 47 56 113 66 171 8 50 21 47 35 -11z m-2471 -270 l31 -61 -19 -44 c-28 -66 -69 -234 -76 -318 -4 -41 -22 -123 -40 -184 -18 -60 -38 -144 -45 -185 -7 -41 -18 -85 -26 -97 -18 -29 -50 -30 -65 -2 -17 32 -23 303 -11 496 12 191 10 183 120 413 33 69 63 136 68 150 6 21 9 15 20 -41 7 -36 26 -93 43 -127z m2604 -59 c80 -158 78 -146 84 -478 6 -316 1 -368 -33 -373 -33 -5 -51 28 -69 123 -9 50 -29 133 -45 185 -16 52 -31 122 -35 155 -11 102 -36 216 -67 304 l-30 84 26 52 c15 28 34 83 43 122 l17 72 36 -87 c20 -48 53 -119 73 -159z m-2414 83 c1 -109 -11 -159 -100 -398 -78 -209 -109 -319 -109 -387 -1 -66 -16 -33 -29 62 -37 265 36 586 181 800 40 59 42 61 49 37 4 -14 7 -65 8 -114z m2140 35 c125 -207 184 -475 160 -718 -14 -142 -24 -165 -32 -78 -4 43 -26 123 -58 214 -164 470 -151 424 -151 536 0 104 8 153 22 139 5 -5 32 -47 59 -93z m-1668 -89 c42 -42 153 -122 168 -122 36 0 -3 -28 -106 -77 -65 -30 -133 -67 -152 -81 -40 -30 -45 -25 -62 70 -14 80 -7 116 48 225 l37 72 16 -27 c9 -15 32 -42 51 -60z m1225 2 c27 -53 39 -93 42 -133 4 -60 -13 -171 -27 -171 -5 0 -19 8 -32 19 -13 10 -79 46 -146 80 -68 34 -123 65 -123 69 0 5 15 16 33 24 51 26 145 105 175 148 15 22 30 39 34 40 4 0 24 -34 44 -76z m-91 -279 c22 -10 58 -31 81 -46 39 -27 41 -31 62 -126 30 -135 42 -217 42 -291 l0 -64 -57 49 c-32 26 -64 55 -73 64 -20 22 -227 133 -296 159 -60 22 -124 26 -156 9 -37 -20 -30 0 30 78 121 158 175 196 272 190 30 -2 73 -12 95 -22z m-2060 -315 c0 -257 2 -291 17 -306 21 -22 62 -12 84 20 8 14 22 66 30 118 8 51 25 125 37 163 l22 70 2 -50 c8 -153 52 -318 106 -393 67 -94 71 -105 75 -254 6 -206 -7 -243 -61 -178 -16 19 -28 48 -32 82 -4 29 -14 70 -23 91 -13 33 -13 40 -1 47 7 5 10 12 6 16 -4 4 -27 -13 -51 -38 -33 -35 -50 -65 -71 -127 -26 -78 -26 -84 -14 -153 11 -61 19 -79 56 -120 49 -55 59 -82 43 -122 l-10 -28 -40 32 c-61 48 -121 120 -145 175 -18 40 -25 85 -35 215 -21 265 -18 1030 3 1030 1 0 2 -130 2 -290z m2986 -135 c0 -198 -6 -450 -12 -560 -10 -188 -12 -204 -39 -260 -19 -39 -54 -85 -102 -133 -66 -65 -74 -71 -85 -55 -24 32 -15 70 32 127 24 30 47 68 50 83 3 15 11 47 17 69 8 35 7 52 -12 105 -34 96 -56 135 -93 163 -40 31 -57 34 -32 6 13 -15 15 -23 7 -33 -7 -7 -18 -47 -27 -88 -17 -81 -42 -124 -71 -124 -26 0 -36 72 -29 208 7 124 21 170 71 239 49 67 92 204 106 340 l12 109 18 -57 c10 -32 23 -87 29 -123 26 -157 46 -201 95 -201 43 0 49 41 49 339 0 180 3 263 8 240 5 -19 9 -196 8 -394z m-2138 -27 c3 -13 16 -50 27 -83 31 -86 24 -166 -29 -325 -23 -69 -46 -145 -52 -170 -5 -25 -26 -88 -45 -140 -57 -152 -124 -457 -150 -675 -11 -101 -20 -106 -27 -15 -32 426 -14 633 93 1070 27 112 50 215 50 229 0 24 96 131 117 131 6 0 13 -10 16 -22z m1344 -22 c43 -39 50 -51 61 -107 8 -35 34 -147 58 -248 85 -349 89 -385 89 -746 0 -176 -4 -329 -9 -340 -6 -14 -16 30 -36 155 -45 289 -92 485 -155 637 -14 35 -25 70 -25 80 0 9 -23 85 -50 169 -63 192 -67 253 -26 367 16 42 32 77 36 77 4 0 30 -20 57 -44z m-699 -406 c0 -36 -3 -78 -7 -95 -9 -38 -20 100 -13 160 7 60 21 16 20 -65z m-39 -209 c-5 -46 -23 -138 -39 -205 -65 -270 -110 -538 -110 -656 -1 -67 -13 -34 -44 115 -56 275 -69 475 -42 632 26 147 32 159 92 188 29 14 72 45 96 70 l43 43 7 -51 c4 -29 3 -90 -3 -136z m196 76 c58 -32 60 -34 77 -96 32 -118 41 -249 29 -393 -10 -112 -73 -473 -84 -484 -2 -3 -10 50 -16 116 -16 159 -40 296 -89 510 -22 96 -45 202 -51 234 -12 66 -14 168 -5 204 6 23 8 22 43 -17 20 -22 63 -55 96 -74z m-427 -104 c-24 -82 -35 -341 -20 -448 8 -59 6 -82 -10 -145 -29 -114 -33 -257 -13 -485 11 -123 16 -249 13 -328 -5 -124 -6 -129 -43 -202 -21 -41 -41 -75 -45 -75 -4 0 -15 30 -24 67 -10 37 -46 137 -80 222 -75 184 -86 217 -96 285 -6 43 -8 45 -9 16 -2 -51 33 -167 90 -302 27 -65 49 -124 49 -131 0 -8 -22 -50 -48 -95 -27 -45 -55 -100 -62 -122 l-14 -41 -18 91 c-19 92 -55 178 -109 257 -16 23 -29 46 -29 51 0 6 19 56 41 113 23 57 52 133 65 169 13 36 24 61 24 55 1 -13 54 185 79 295 47 204 88 573 77 690 l-5 65 92 32 c50 17 97 32 103 32 7 1 5 -22 -8 -66z m611 34 l94 -32 -2 -100 c-4 -200 49 -580 108 -785 52 -176 44 -236 -64 -502 -36 -87 -73 -188 -83 -224 -10 -36 -22 -65 -27 -66 -5 0 -24 29 -42 63 -55 106 -58 202 -23 647 12 155 2 306 -26 385 -13 36 -13 58 -3 151 18 164 2 380 -36 479 -9 22 -7 22 104 -16z m-971 -77 c26 1 65 7 87 15 66 24 72 21 77 -32 15 -152 -49 -625 -113 -848 -47 -160 -240 -650 -268 -678 -4 -4 -7 46 -7 110 1 73 -10 204 -27 340 l-27 223 31 207 c17 115 42 262 56 328 23 112 83 317 105 358 9 18 10 18 24 -2 12 -16 25 -21 62 -21z m1247 0 c33 0 47 5 58 21 18 25 17 27 55 -91 57 -174 88 -319 127 -590 31 -209 30 -242 -8 -560 -13 -110 -22 -226 -19 -265 2 -38 2 -68 -1 -65 -2 3 -25 52 -50 110 -180 417 -226 555 -277 837 -41 219 -70 533 -56 605 l6 36 61 -19 c33 -11 80 -19 104 -19z m-1972 -250 c50 -48 66 -70 61 -83 -3 -9 -9 -17 -13 -17 -13 0 -161 157 -161 171 0 8 -3 25 -6 39 -5 23 -3 22 22 -10 15 -19 59 -64 97 -100z m2816 123 c-5 -49 -156 -232 -179 -218 -20 12 -9 29 75 116 47 49 85 93 85 99 0 5 5 10 10 10 6 0 10 -3 9 -7z m-2816 -249 c-5 -15 -14 -29 -19 -31 -8 -3 -64 129 -64 150 0 3 21 -16 46 -43 41 -44 45 -52 37 -76z m2752 56 c-14 -35 -25 -70 -25 -77 0 -16 -12 -17 -28 -1 -24 24 -13 61 30 105 23 23 43 41 45 40 1 -2 -8 -32 -22 -67z m-1108 -425 c4 -91 -1 -212 -12 -345 -10 -123 -15 -236 -11 -282 4 -43 4 -78 2 -78 -2 0 -14 28 -25 63 -22 68 -34 151 -51 356 l-12 134 39 189 38 189 14 -43 c7 -24 15 -106 18 -183z m-495 -185 c-3 -142 -33 -382 -57 -454 l-23 -71 -1 130 c0 72 -8 220 -18 330 -17 208 -11 369 18 440 10 28 14 18 47 -135 25 -117 35 -187 34 -240z m813 -117 c9 -27 40 -105 68 -175 l50 -127 -30 -38 c-58 -73 -98 -167 -117 -278 l-13 -70 -30 66 c-17 36 -47 91 -67 123 l-36 57 56 137 c59 144 94 263 94 319 0 18 2 33 4 33 2 0 11 -21 21 -47z m-1307 -385 c47 -73 87 -186 97 -273 5 -48 1 -80 -19 -155 -35 -129 -53 -272 -61 -476 -7 -169 -8 -172 -32 -183 -41 -19 -80 -13 -114 17 -29 26 -32 36 -51 157 -16 101 -21 182 -22 360 l-1 230 52 140 c65 177 94 245 103 245 4 0 26 -28 48 -62z m1461 4 c13 -31 46 -120 74 -197 l51 -140 0 -195 c0 -136 -5 -235 -17 -325 -24 -170 -32 -200 -64 -224 -30 -25 -89 -28 -119 -6 -20 13 -21 27 -27 207 -7 214 -17 297 -53 435 -13 51 -24 113 -24 137 0 55 32 182 61 238 27 54 78 128 87 128 4 0 18 -26 31 -58z m-1191 -124 c6 -24 13 -62 16 -84 3 -23 22 -97 42 -165 51 -173 63 -227 64 -277 0 -54 -49 -203 -132 -397 -56 -132 -67 -152 -96 -167 -38 -18 -81 -11 -115 19 -19 17 -19 28 -14 268 7 326 34 480 116 660 42 92 93 185 102 185 4 0 11 -19 17 -42z m930 -83 c112 -224 151 -443 152 -836 0 -141 -8 -162 -65 -177 -53 -15 -93 3 -115 51 -51 113 -131 311 -155 387 -38 120 -35 163 24 369 28 95 53 194 56 220 4 25 11 61 17 80 14 44 23 34 86 -94z m-1423 -247 c-13 -121 14 -373 90 -838 14 -85 28 -198 31 -250 l6 -95 -37 -70 c-42 -79 -62 -104 -51 -65 35 128 28 276 -28 585 -50 272 -58 344 -58 485 0 117 8 180 32 272 16 57 22 46 15 -24z m1860 -66 c30 -170 18 -336 -52 -707 -30 -163 -36 -212 -37 -345 0 -104 4 -165 12 -184 20 -46 7 -41 -25 11 -61 97 -66 123 -49 263 8 69 31 221 50 338 49 295 66 454 67 617 0 154 8 155 34 7z m-1725 -595 c14 -3 41 0 60 6 l35 12 11 -185 11 -185 1 132 2 133 33 -20 c36 -22 68 -25 99 -9 11 6 21 9 23 7 2 -2 -5 -30 -15 -63 -71 -232 -83 -291 -88 -410 -4 -129 5 -187 68 -424 33 -123 40 -255 17 -301 -28 -55 -155 -92 -256 -75 -24 4 -74 28 -119 57 -42 28 -106 61 -142 73 -141 48 -169 64 -180 104 -6 22 -18 40 -32 46 -32 14 -36 60 -7 75 17 10 23 9 30 -1 8 -14 7 -15 99 62 30 25 83 64 116 86 l62 40 15 -31 16 -31 -6 52 c-7 69 0 92 46 148 22 27 53 73 70 104 l30 56 1 -130 c0 -71 -4 -157 -9 -190 -5 -33 -12 -78 -15 -100 l-6 -40 15 45 c27 81 38 267 26 428 -11 135 -51 437 -71 525 -8 37 -8 38 13 24 12 -8 33 -16 47 -20z m1606 -64 c-72 -399 -84 -723 -35 -907 16 -60 18 -38 4 49 -19 114 -29 276 -21 329 l7 46 29 -55 c16 -30 43 -70 59 -87 49 -52 64 -93 57 -150 -5 -34 -4 -48 4 -43 5 3 10 13 10 21 0 8 6 14 13 13 13 -1 119 -75 213 -149 33 -25 59 -40 61 -34 7 20 43 3 49 -22 7 -28 -1 -43 -31 -54 -14 -5 -24 -20 -28 -39 -8 -38 -34 -55 -143 -92 -52 -17 -127 -54 -179 -87 l-90 -57 -90 1 c-99 1 -144 16 -185 59 -23 25 -25 34 -24 118 0 71 8 120 33 212 85 315 90 434 25 654 -14 47 -32 111 -40 141 -9 30 -18 63 -20 72 -4 15 -1 15 31 7 38 -11 105 3 105 22 0 5 4 9 10 9 5 0 11 -56 13 -132 2 -116 3 -109 5 55 1 103 6 187 10 187 4 0 13 -5 19 -11 16 -16 90 -13 116 4 12 8 24 13 26 11 2 -1 -4 -43 -13 -91z m-1400 -440 c0 -43 6 -115 13 -159 11 -71 11 -85 -2 -110 l-15 -29 -8 40 c-16 74 -8 335 10 335 1 0 2 -35 2 -77z m1163 -98 c1 -121 -6 -195 -18 -195 -4 0 -12 14 -18 31 -9 23 -9 45 2 97 8 37 15 108 16 157 2 132 16 59 18 -90z" id="muscle_15"/>
<path d="M7378 7430 c2 -157 8 -310 13 -340 9 -62 1 337 -10 515 -5 64 -6 -10 -3 -175z" id="muscle_16"/>
</g>
</svg>